<?xml version="1.0" standalone="no"?>
<!DOCTYPE svg PUBLIC "-//W3C//DTD SVG 20010904//EN"
 "http://www.w3.org/TR/2001/REC-SVG-20010904/DTD/svg10.dtd">
<svg version="1.0" xmlns="http://www.w3.org/2000/svg"
 width="1000.000000pt" height="1000.000000pt" viewBox="0 0 1000.000000 1000.000000"
 preserveAspectRatio="xMidYMid meet">
<metadata>
Created by potrace 1.11, written by Peter Selinger 2001-2013
</metadata>
<g transform="translate(0.000000,1000.000000) scale(0.100000,-0.100000)"
fill="#000000" stroke="none">
<path d="M4790 9573 c-611 -46 -1184 -205 -1730 -479 -1325 -667 -2246 -1932
-2470 -3394 -68 -440 -68 -960 0 -1400 169 -1103 740 -2111 1601 -2827 686
-569 1497 -916 2409 -1028 182 -23 672 -31 867 -16 1282 105 2433 712 3229
1705 503 627 830 1371 954 2167 51 325 65 779 35 1109 -165 1814 -1387 3361
-3110 3935 -504 168 -936 237 -1475 233 -146 -1 -285 -3 -310 -5z m-2282
-2134 c59 -12 123 -63 155 -123 l22 -41 3 -987 2 -988 975 0 975 0 2 988 3
987 22 41 c12 23 41 58 64 77 108 93 271 56 342 -77 l22 -41 3 -987 c2 -972 3
-988 22 -988 19 0 20 16 22 988 3 941 4 989 22 1022 26 49 64 88 111 113 l40
22 1150 0 1150 0 48 -28 c148 -87 148 -297 0 -384 l-48 -28 -1007 -3 -1008 -3
0 -849 0 -849 848 -3 c845 -3 847 -3 887 -25 77 -41 118 -108 118 -193 0 -85
-41 -152 -118 -193 -40 -22 -42 -22 -887 -25 l-848 -3 0 -864 0 -865 988 -2
987 -3 48 -28 c148 -87 148 -297 0 -384 l-48 -28 -1115 0 -1115 0 -45 24 c-58
30 -106 76 -133 126 l-22 40 -3 993 c-2 976 -3 992 -22 992 -19 0 -20 -16 -22
-992 l-3 -993 -22 -40 c-44 -82 -117 -128 -203 -128 -86 0 -159 46 -203 128
l-22 40 -3 993 -2 992 -975 0 -975 0 -2 -992 -3 -993 -22 -40 c-44 -82 -117
-128 -203 -128 -86 0 -159 46 -203 128 l-22 40 0 2200 0 2200 22 41 c39 73
107 120 195 133 4 1 29 -4 56 -10z"/>
</g>
</svg>
